<svg xmlns="http://www.w3.org/2000/svg" viewBox="0 0 120 120" width="100%" height="100%">
  <defs>
    <linearGradient id="favBg" x1="0%" y1="0%" x2="100%" y2="100%">
      <stop offset="0%" stop-color="#0F172A" />
      <stop offset="100%" stop-color="#020617" />
    </linearGradient>
    <linearGradient id="fCurl" x1="0%" y1="0%" x2="100%" y2="100%">
      <stop offset="0%" stop-color="#00E5FF" />
      <stop offset="100%" stop-color="#0077B6" />
    </linearGradient>
    <linearGradient id="fArr" x1="0%" y1="100%" x2="100%" y2="0%">
      <stop offset="0%" stop-color="#00D2FF" />
      <stop offset="100%" stop-color="#10B981" />
    </linearGradient>
  </defs>

  <rect width="120" height="120" rx="28" fill="url(#favBg)" />

  <!-- Receipt paper -->
  <path
    d="M 32 30 L 78 30 L 78 84 L 74 80 L 70 84 L 66 80 L 62 84 L 58 80 L 54 84 L 50 80 L 46 84 L 42 80 L 38 84 L 34 80 L 32 82 Z"
    fill="#EFF6FF"
    stroke="#BFDBFE"
    stroke-width="1.5"
  />
  <path d="M 28 30 C 28 14, 52 14, 52 30 C 44 30, 36 30, 28 30 Z" fill="url(#fCurl)" />
  <rect x="38" y="38" width="22" height="3.5" rx="1.75" fill="#3B82F6" />
  <rect x="38" y="45" width="16" height="3.5" rx="1.75" fill="#60A5FA" />

  <!-- Rising bars -->
  <rect x="52" y="60" width="6.5" height="22" rx="3.25" fill="#0077E6" />
  <rect x="61" y="52" width="6.5" height="30" rx="3.25" fill="#00B4D8" />
  <rect x="70" y="42" width="6.5" height="40" rx="3.25" fill="#00F5D4" />
  <rect x="79" y="32" width="6.5" height="50" rx="3.25" fill="#10B981" />

  <!-- Swoosh Arrow -->
  <path d="M 42 82 C 54 80, 72 74, 91 44" fill="none" stroke="url(#fArr)" stroke-width="4.5" stroke-linecap="round" />
  <path d="M 83 44 L 92 43 L 91 52" fill="none" stroke="url(#fArr)" stroke-width="4.5" stroke-linecap="round" stroke-linejoin="round" />
</svg>